<svg xmlns="http://www.w3.org/2000/svg" version="1.1" width="790.8" height="432.6076868042302" viewBox="0 0 350 191.46774200996532"
    class="looka-1j8o68f">
    <defs id="SvgjsDefs1019">
        <linearGradient id="SvgjsLinearGradient1026">
            <stop id="SvgjsStop1027" stop-color="#fe8dc6" offset="0"></stop>
            <stop id="SvgjsStop1028" stop-color="#fed1c7" offset="1"></stop>
        </linearGradient>
        <linearGradient id="SvgjsLinearGradient1029">
            <stop id="SvgjsStop1030" stop-color="#fe8dc6" offset="0"></stop>
            <stop id="SvgjsStop1031" stop-color="#fed1c7" offset="1"></stop>
        </linearGradient>
    </defs>
    <g id="SvgjsG1020" featurekey="symbolFeature-0"
        transform="matrix(0.17704262496318302,0,0,0.17704262496318302,100.05341917119945,-35.350100602224025)"
        fill="url(#SvgjsLinearGradient1026)">
        <defs xmlns="http://www.w3.org/2000/svg"></defs>
        <g xmlns="http://www.w3.org/2000/svg">
            <path
                d="M552.45 199.67l49.88 86.39 58.51 0c5.29,-12.73 17.72,-21.08 31.57,-21.08 18.87,0 34.18,15.3 34.18,34.17 0,18.87 -15.31,34.18 -34.18,34.18 -13.79,0 -26.24,-8.41 -31.54,-21.08l-43.41 0 56.46 97.79 79.04 0c5.29,-12.73 17.72,-21.08 31.57,-21.08 18.88,0 34.18,15.31 34.18,34.18 0,18.87 -15.3,34.17 -34.18,34.17 -13.78,0 -26.23,-8.41 -31.52,-21.07l-78.87 0 -44.26 76.65c11.49,3.3 19.35,9.31 22.86,21.59 6.76,23.64 -5.32,32.09 24.68,33.88 1.5,0.09 3,0.16 4.51,0.23 4.62,-13.94 17.69,-23.41 32.44,-23.41 18.87,0 34.17,15.3 34.17,34.18 0,18.87 -15.3,34.17 -34.17,34.17 -12.93,0 -24.68,-7.27 -30.5,-18.75 -2.83,-0.08 -5.51,-0.18 -7.98,-0.33 -5.82,-0.35 -11.1,-0.91 -15.53,-1.78 -23.76,-4.66 -28.38,-18.43 -30.92,-39.55 -1.61,-13.37 0.16,-14.44 -13.27,-16.48l-63.72 110.35 -258.26 0 -49.98 -86.58 -58.4 0c-5.29,12.73 -17.72,21.08 -31.57,21.08 -18.87,0 -34.18,-15.3 -34.18,-34.17 0,-18.87 15.31,-34.18 34.18,-34.18 13.79,0 26.24,8.41 31.54,21.08l43.3 0 -56.46 -97.79 -78.93 0c-5.29,12.73 -17.72,21.08 -31.57,21.08 -18.88,0 -34.18,-15.31 -34.18,-34.18 0,-18.87 15.3,-34.17 34.18,-34.17 13.79,0 26.23,8.41 31.52,21.08l78.98 0 44.25 -76.64c-4.18,-1.2 -7.56,-2.67 -10.38,-4.41 -24.57,-15.23 -5.82,-45.92 -25.21,-49.71 -5.37,-1.06 -11.08,-1.37 -16.56,-1.6 -4.62,13.94 -17.68,23.41 -32.44,23.41 -18.87,0 -34.17,-15.3 -34.17,-34.17 0,-18.87 15.3,-34.18 34.17,-34.18 12.94,0 24.68,7.27 30.5,18.74 7.76,0.23 15.91,0.63 23.51,2.12 23.76,4.66 28.38,18.43 30.92,39.55 1.56,12.99 -0.22,14.46 13.37,16.5l63.62 -110.18 258.25 0zm-129.12 111.22c50.27,34.58 68.68,50.8 127.19,62.09l0 24.61c0,82.64 -53.28,153.44 -127.19,179.76 -73.92,-26.32 -127.2,-97.12 -127.2,-179.76l0 -24.61c58.51,-11.29 76.92,-27.51 127.2,-62.09zm0 77.88c16.56,0 29.98,13.42 29.98,29.98 0,10 -4.9,18.85 -12.42,24.3l0 58.23 -35.13 0 0 -58.23c-7.52,-5.45 -12.42,-14.3 -12.42,-24.3 0,-16.56 13.42,-29.98 29.99,-29.98zm269.08 -81.63c4.42,0 7.99,-3.57 7.99,-7.99 0,-4.41 -3.57,-7.98 -7.99,-7.98 -4.58,0 -8.25,3.92 -7.99,8.5 0.58,4.34 3.44,7.47 7.99,7.47zm92.12 123.98c4.42,0 7.99,-3.57 7.99,-7.98 0,-4.41 -3.57,-7.98 -7.99,-7.98 -4.85,0 -8.37,4.11 -7.95,8.91 0.45,4.1 3.86,7.05 7.95,7.05zm-70.16 156.22c4.41,0 7.98,-3.57 7.98,-7.98 0,-4.42 -3.57,-7.99 -7.98,-7.99 -4.41,0 -7.98,3.57 -7.98,7.99 0,4.41 3.57,7.98 7.98,7.98zm-560.13 -48.01c-4.42,0 -7.99,3.58 -7.99,7.99 0,4.41 3.57,7.98 7.99,7.98 4.41,0 7.98,-3.57 7.98,-7.98 0,-4.47 -3.45,-7.99 -7.98,-7.99zm-92.12 -123.98c-4.42,0 -7.99,3.57 -7.99,7.98 0,4.41 3.57,7.98 7.99,7.98 4.41,0 7.98,-3.57 7.98,-7.98 0,-4.47 -3.42,-7.98 -7.98,-7.98zm70.16 -156.22c-4.41,0 -7.98,3.57 -7.98,7.99 0,4.41 3.57,7.98 7.98,7.98 4.41,0 7.98,-3.57 7.98,-7.98 0,-4.42 -3.57,-7.99 -7.98,-7.99z"
                style="fill: url(#SvgjsLinearGradient1026);"></path>
        </g>
    </g>
    <g id="SvgjsG1022" featurekey="sloganFeature-0"
        transform="matrix(1,0,0,1,100.30642357410194,100.14675419389363)"
        fill="url(#SvgjsLinearGradient1029)">
        <path
            d="M8.0762 20.19531 c-4.1504 0 -7.2168 -2.8223 -7.2168 -7.2559 s3.0664 -7.2461 7.2168 -7.2461 c3.1445 0 5.6641 1.6113 6.6699 4.2871 l-2.7344 0.99609 c-0.625 -1.6406 -2.1191 -2.5879 -3.9355 -2.5879 c-2.4316 0 -4.2969 1.6992 -4.2969 4.5508 s1.8652 4.5605 4.2969 4.5605 c1.8164 0 3.3105 -0.95703 3.9355 -2.5977 l2.7344 0.99609 c-1.0059 2.6758 -3.5254 4.2969 -6.6699 4.2969 z M25.80325078125 20.19531 c-4.1504 0 -7.2168 -2.832 -7.2168 -7.2559 c0 -4.4336 3.0664 -7.2461 7.2168 -7.2461 c4.1406 0 7.207 2.8125 7.207 7.2461 c0 4.4238 -3.0664 7.2559 -7.207 7.2559 z M25.80325078125 17.5098 c2.4316 0 4.2969 -1.709 4.2969 -4.5703 c0 -2.8516 -1.8652 -4.5508 -4.2969 -4.5508 s-4.2969 1.6992 -4.2969 4.5508 c0 2.8613 1.8652 4.5703 4.2969 4.5703 z M38.1103796875 20 l0 -14.111 l5.1074 0 c4.502 0 6.7285 2.832 6.7285 7.0508 c0 4.2285 -2.2266 7.0605 -6.7285 7.0605 l-5.1074 0 z M41.0400796875 17.4121 l2.0313 0 c2.5977 0 3.7891 -1.6211 3.7891 -4.4727 s-1.1914 -4.4727 -3.7891 -4.4727 l-2.0313 0 l0 8.9453 z M63.27904296875 8.467 l-5.2344 0 l0 3.2031 l4.6387 0 l0 2.5488 l-4.6387 0 l0 3.1934 l5.2344 0 l0 2.5879 l-8.1836 0 l0 -14.111 l8.1836 0 l0 2.5781 z M76.66259765625 22.998 l0 -17.998 l1.748 0 l0 17.998 l-1.748 0 z M101.32602734375 5.888999999999999 l2.9297 0 l0 14.111 l-2.9297 0 l0 -5.8008 l-5.9668 0 l0 5.8008 l-2.9297 0 l0 -14.111 l2.9297 0 l0 5.7617 l5.9668 0 l0 -5.7617 z M110.312528125 20 l0 -14.111 l2.9297 0 l0 14.111 l-2.9297 0 z M126.74067890625 20 l-3.6719 -6.2109 l-0.84961 0 l0 6.2109 l-2.9297 0 l0 -14.111 l5.1172 0 c3.1934 0 4.541 1.8848 4.541 4.2188 c0 1.8945 -1.0742 3.125 -2.9883 3.5352 l4.248 6.3574 l-3.4668 0 z M122.21927890625 8.32 l0 3.3691 l1.7285 0 c1.5625 0 2.1973 -0.66406 2.1973 -1.6797 c0 -1.0059 -0.63477 -1.6895 -2.1973 -1.6895 l-1.7285 0 z M142.9445703125 8.467 l-5.2344 0 l0 3.2031 l4.6387 0 l0 2.5488 l-4.6387 0 l0 3.1934 l5.2344 0 l0 2.5879 l-8.1836 0 l0 -14.111 l8.1836 0 l0 2.5781 z"></path>
    </g>
</svg>