<svg xmlns="http://www.w3.org/2000/svg" version="1.1" viewBox="0 0 350 191.46774200996532"
    class="looka-1j8o68f">
    <defs id="SvgjsDefs1019">
        <linearGradient id="SvgjsLinearGradient1026">
            <stop id="SvgjsStop1027" stop-color="#fe8dc6" offset="0"></stop>
            <stop id="SvgjsStop1028" stop-color="#fed1c7" offset="1"></stop>
        </linearGradient>
        <linearGradient id="SvgjsLinearGradient1029">
            <stop id="SvgjsStop1030" stop-color="#fe8dc6" offset="0"></stop>
            <stop id="SvgjsStop1031" stop-color="#fed1c7" offset="1"></stop>
        </linearGradient>
    </defs>
    <g id="SvgjsG1020" featurekey="symbolFeature-0"
        transform="matrix(0.17704262496318302,0,0,0.17704262496318302,100.05341917119945,-35.350100602224025)"
        fill="url(#SvgjsLinearGradient1026)">
        <defs xmlns="http://www.w3.org/2000/svg"></defs>
        <g xmlns="http://www.w3.org/2000/svg">
            <path
                d="M552.45 199.67l49.88 86.39 58.51 0c5.29,-12.73 17.72,-21.08 31.57,-21.08 18.87,0 34.18,15.3 34.18,34.17 0,18.87 -15.31,34.18 -34.18,34.18 -13.79,0 -26.24,-8.41 -31.54,-21.08l-43.41 0 56.46 97.79 79.04 0c5.29,-12.73 17.72,-21.08 31.57,-21.08 18.88,0 34.18,15.31 34.18,34.18 0,18.87 -15.3,34.17 -34.18,34.17 -13.78,0 -26.23,-8.41 -31.52,-21.07l-78.87 0 -44.26 76.65c11.49,3.3 19.35,9.31 22.86,21.59 6.76,23.64 -5.32,32.09 24.68,33.88 1.5,0.09 3,0.16 4.51,0.23 4.62,-13.94 17.69,-23.41 32.44,-23.41 18.87,0 34.17,15.3 34.17,34.18 0,18.87 -15.3,34.17 -34.17,34.17 -12.93,0 -24.68,-7.27 -30.5,-18.75 -2.83,-0.08 -5.51,-0.18 -7.98,-0.33 -5.82,-0.35 -11.1,-0.91 -15.53,-1.78 -23.76,-4.66 -28.38,-18.43 -30.92,-39.55 -1.61,-13.37 0.16,-14.44 -13.27,-16.48l-63.72 110.35 -258.26 0 -49.98 -86.58 -58.4 0c-5.29,12.73 -17.72,21.08 -31.57,21.08 -18.87,0 -34.18,-15.3 -34.18,-34.17 0,-18.87 15.31,-34.18 34.18,-34.18 13.79,0 26.24,8.41 31.54,21.08l43.3 0 -56.46 -97.79 -78.93 0c-5.29,12.73 -17.72,21.08 -31.57,21.08 -18.88,0 -34.18,-15.31 -34.18,-34.18 0,-18.87 15.3,-34.17 34.18,-34.17 13.79,0 26.23,8.41 31.52,21.08l78.98 0 44.25 -76.64c-4.18,-1.2 -7.56,-2.67 -10.38,-4.41 -24.57,-15.23 -5.82,-45.92 -25.21,-49.71 -5.37,-1.06 -11.08,-1.37 -16.56,-1.6 -4.62,13.94 -17.68,23.41 -32.44,23.41 -18.87,0 -34.17,-15.3 -34.17,-34.17 0,-18.87 15.3,-34.18 34.17,-34.18 12.94,0 24.68,7.27 30.5,18.74 7.76,0.23 15.91,0.63 23.51,2.12 23.76,4.66 28.38,18.43 30.92,39.55 1.56,12.99 -0.22,14.46 13.37,16.5l63.62 -110.18 258.25 0zm-129.12 111.22c50.27,34.58 68.68,50.8 127.19,62.09l0 24.61c0,82.64 -53.28,153.44 -127.19,179.76 -73.92,-26.32 -127.2,-97.12 -127.2,-179.76l0 -24.61c58.51,-11.29 76.92,-27.51 127.2,-62.09zm0 77.88c16.56,0 29.98,13.42 29.98,29.98 0,10 -4.9,18.85 -12.42,24.3l0 58.23 -35.13 0 0 -58.23c-7.52,-5.45 -12.42,-14.3 -12.42,-24.3 0,-16.56 13.42,-29.98 29.99,-29.98zm269.08 -81.63c4.42,0 7.99,-3.57 7.99,-7.99 0,-4.41 -3.57,-7.98 -7.99,-7.98 -4.58,0 -8.25,3.92 -7.99,8.5 0.58,4.34 3.44,7.47 7.99,7.47zm92.12 123.98c4.42,0 7.99,-3.57 7.99,-7.98 0,-4.41 -3.57,-7.98 -7.99,-7.98 -4.85,0 -8.37,4.11 -7.95,8.91 0.45,4.1 3.86,7.05 7.95,7.05zm-70.16 156.22c4.41,0 7.98,-3.57 7.98,-7.98 0,-4.42 -3.57,-7.99 -7.98,-7.99 -4.41,0 -7.98,3.57 -7.98,7.99 0,4.41 3.57,7.98 7.98,7.98zm-560.13 -48.01c-4.42,0 -7.99,3.58 -7.99,7.99 0,4.41 3.57,7.98 7.99,7.98 4.41,0 7.98,-3.57 7.98,-7.98 0,-4.47 -3.45,-7.99 -7.98,-7.99zm-92.12 -123.98c-4.42,0 -7.99,3.57 -7.99,7.98 0,4.41 3.57,7.98 7.99,7.98 4.41,0 7.98,-3.57 7.98,-7.98 0,-4.47 -3.42,-7.98 -7.98,-7.98zm70.16 -156.22c-4.41,0 -7.98,3.57 -7.98,7.99 0,4.41 3.57,7.98 7.98,7.98 4.41,0 7.98,-3.57 7.98,-7.98 0,-4.42 -3.57,-7.99 -7.98,-7.99z"
                style="fill: url(#SvgjsLinearGradient1026);"></path>
        </g>
    </g>
</svg>